<svg width="24" height="25" viewBox="0 0 24 25" fill="none" xmlns="http://www.w3.org/2000/svg">
<path d="M23.2368 8.62689C23.3885 9.0393 23.2605 9.49911 22.9334 9.79301L20.8808 11.6607C20.933 12.0541 20.9614 12.4571 20.9614 12.8647C20.9614 13.2724 20.933 13.6753 20.8808 14.0688L22.9334 15.9365C23.2605 16.2304 23.3885 16.6902 23.2368 17.1026C23.0282 17.6667 22.777 18.2071 22.4878 18.7285L22.265 19.1125C21.9522 19.6339 21.6014 20.1269 21.2174 20.5915C20.9377 20.9328 20.4732 21.0466 20.056 20.9138L17.4157 20.0748C16.7805 20.563 16.0789 20.9707 15.3299 21.2788L14.7374 23.9856C14.6426 24.4169 14.3107 24.7582 13.8746 24.8293C13.2205 24.9384 12.5473 24.9953 11.86 24.9953C11.1726 24.9953 10.4995 24.9384 9.84535 24.8293C9.40924 24.7582 9.07741 24.4169 8.98261 23.9856L8.39006 21.2788C7.64109 20.9707 6.93952 20.563 6.30432 20.0748L3.66869 20.9186C3.25154 21.0513 2.78699 20.9328 2.50731 20.5962C2.12334 20.1317 1.77256 19.6387 1.4597 19.1172L1.2369 18.7333C0.947741 18.2118 0.696504 17.6714 0.487929 17.1073C0.336238 16.6949 0.464227 16.2351 0.79131 15.9412L2.84387 14.0735C2.79173 13.6753 2.76329 13.2724 2.76329 12.8647C2.76329 12.4571 2.79173 12.0541 2.84387 11.6607L0.79131 9.79301C0.464227 9.49911 0.336238 9.0393 0.487929 8.62689C0.696504 8.06279 0.947741 7.52239 1.2369 7.00095L1.4597 6.61699C1.77256 6.09555 2.12334 5.60256 2.50731 5.138C2.78699 4.7967 3.25154 4.68293 3.66869 4.81566L6.30906 5.6547C6.94426 5.16644 7.64583 4.75878 8.39481 4.45065L8.98735 1.74392C9.08215 1.31255 9.41398 0.971249 9.85009 0.900144C10.5043 0.786376 11.1774 0.729492 11.8647 0.729492C12.5521 0.729492 13.2252 0.786376 13.8794 0.895404C14.3155 0.966509 14.6473 1.30781 14.7421 1.73918L15.3347 4.44591C16.0836 4.75404 16.7852 5.1617 17.4204 5.64996L20.0608 4.81092C20.4779 4.67819 20.9425 4.7967 21.2221 5.13326C21.6061 5.59782 21.9569 6.09081 22.2698 6.61225L22.4926 6.99621C22.7817 7.51765 23.033 8.05805 23.2415 8.62215L23.2368 8.62689ZM11.8647 16.657C13.96 16.657 15.657 14.96 15.657 12.8647C15.657 10.7695 13.96 9.07248 11.8647 9.07248C9.7695 9.07248 8.07246 10.7695 8.07246 12.8647C8.07246 14.96 9.7695 16.657 11.8647 16.657Z" fill="#777777"/>
</svg>
